<?xml version="1.0" encoding="UTF-8"?>
<svg id="Layer_2" data-name="Layer 2" xmlns="http://www.w3.org/2000/svg" viewBox="0 0 124.44 209.77">
  <defs>
    <style>
      .cls-1 {
        fill: #231f20;
      }
    </style>
  </defs>
  <g id="Layer_1-2" data-name="Layer 1-2">
    <rect class="cls-1" x="7.92" y=".46" width="116.44" height="20" transform="translate(-.08 .52) rotate(-.45)"/>
    <rect class="cls-1" x="7.92" y="38.82" width="83.48" height="20" transform="translate(-.53 .55) rotate(-.63)"/>
    <path class="cls-1" d="m122.36,161.22c.16-1.05.34-2.09.56-3.12-.09-1.54,0-3.08.16-4.61-.04-.11-.06-.24-.04-.38.31-2.51.62-5.06.84-7.61l.03-12.34c-.07-.68-.15-1.36-.26-2.04-.06-.36.07-.65.26-.87l.31-120.22-20-.06-.29,112.11c.45.09.87.41.87.93,0,1.16-.08,2.32-.17,3.48.02.08.05.16.05.26,0,.62-.05,1.23-.1,1.85.02.78.05,1.56.08,2.33.43,3.42,1.56,6.87.43,10.11.13,4.29-.28,8.57-.53,12.85-.01.25-.1.44-.22.6.03,1.92.01,3.84-.15,5.75-.02.27-.16.5-.34.67l-.02,6.68v.44l17.22.05c.09-2.36.64-4.62,1.32-6.85h-.01Z"/>
    <path class="cls-1" d="m90.21,150.27c-.22-3.89.09-7.78.1-11.67,0-.43.24-.71.54-.85,0-.92.02-1.84.06-2.76-.24-.15-.41-.41-.39-.8.25-2.29.49-4.57.73-6.86-.06-.13-.1-.27-.1-.45,0-2.04.14-4.06.32-6.09-.02-.15-.05-.29-.06-.44-.07-.62-.03-1.26.13-1.86.03-.13.09-.24.17-.34l.27-78.75-20-.08-.11,33.53c.15.16.25.37.25.65,0,1.85-.16,3.69-.27,5.53l-.02,6.48c0,.05.03.09.02.14,0,.17-.02.33-.03.5l-.11,31.7c.18.21.28.5.21.85-.02.08-.03.17-.05.25.29.16.52.45.54.85.29,5.42-.19,10.81-.76,16.2l-.03,8.11c.1,1.6.14,3.2,0,4.81,0,.06,0,.13-.01.19l-.06,18.88,18.82.08c-.1-2.26-.05-4.52-.05-6.78,0-.42.22-.68.5-.83.05-1.56.15-3.13.03-4.69-.14-1.85-.52-3.66-.63-5.51h0Z"/>
    <g>
      <path class="cls-1" d="m91.47,90.61c.12-4.12-.44-8.18-.09-12.09-.14-.2-.26-.45-.28-.69-.05-.6-.12-1.19-.18-1.78-4.18-1.8-8.6-2.78-13.18-2.78-1.91,0-3.79.2-5.64.54-.03,2.57-.32,5.14-.38,7.71-.03,1.18-.04,2.35-.1,3.53.13.16.22.36.21.62-.1,2.69-.28,5.37-.49,8.05.12.15.21.33.22.57.07,2.01-.35,3.99-.36,5.99,0,1.67.12,3.33.27,4.99,2.01-.71,4.1-1.13,6.26-1.13,4.82,0,9.34,1.85,13.23,5.07-.45-3.14-.37-6.28-.15-9.43.12-3.05.37-6.11.65-9.18h0Z"/>
      <path class="cls-1" d="m122.36,161.22c.16-1.05.34-2.09.56-3.12-.09-1.54,0-3.08.16-4.61-.04-.11-.06-.24-.04-.38.9-7.24,1.78-14.73.61-21.99-.05-.28.03-.52.15-.72-2.09-18.58-9.32-34.65-19.5-44.97-.02.75-.04,1.5-.08,2.24.02,1.2.05,2.41.08,3.6.44,5.27,1.58,10.61.43,15.6.13,6.62-.29,13.23-.54,19.83-.01.39-.1.68-.23.92.03,2.88,0,5.76-.15,8.64.17,1.71.26,3.46.26,5.24,0,20.62-11.82,37.39-26.34,37.39-13.6,0-24.81-14.69-26.19-33.48-.69.4-1.35.88-2.01,1.35-.07.11-.15.22-.26.31-5.4,4.24-11.62,6.66-16.72,11.53,5.2,29.4,23.48,51.17,45.18,51.17,19.66,0,36.51-17.85,43.38-43.05.21-1.88.68-3.7,1.23-5.5h.02Z"/>
    </g>
    <path class="cls-1" d="m90.81,160.48c.05-1.56.15-3.13.03-4.69-.14-1.85-.52-3.66-.63-5.51-.05-.95-.07-1.91-.08-2.86-2.65-11.36-9.06-21.15-17.77-27.8-.18,3.71-.53,7.41-.9,11.11.03.09.06.18.06.28-.02,4.05-.28,8.04.03,12.09.15,1.95.25,3.88.07,5.83-.16,1.79-.14,3.6-.52,5.37,0,.02-.01.03-.02.04.27,1.54.43,3.11.43,4.73,0,14.69-11.61,26.63-25.87,26.63s-25.88-11.95-25.88-26.63c0-3.35.62-6.56,1.72-9.51-3.48,2.45-6.85,5.02-10.62,7-3.4,2.7-7.03,5.23-10.86,7.31,2.28,24.57,21.87,43.84,45.63,43.84,22.01,0,40.44-16.52,44.86-38.48-.06-.13-.1-.26-.11-.41-.16-2.5-.08-5.01-.08-7.51,0-.42.22-.68.5-.82h0Z"/>
  </g>
</svg>